<svg id="Layer_1" data-name="Layer 1" xmlns="http://www.w3.org/2000/svg" width="53" height="53" viewBox="0 0 53 53"><defs><style>.cls-1{fill:#ff8139;}</style></defs><path class="cls-1" d="M26.45,37.84a13,13,0,0,1-7.71,7.09,12.5,12.5,0,0,1-8.06,0,12.79,12.79,0,0,1,.59-24.48c6-1.64,11.11.76,15.26,7.29C28.91,23,32.66,20.27,38,20a12.14,12.14,0,0,1,9.48,3.79,12.83,12.83,0,0,1-.89,18.8C41.34,47.12,31.09,47.11,26.45,37.84Zm11.76,5.83a10.88,10.88,0,0,0,.29-21.76,10.88,10.88,0,1,0-.29,21.76Zm-23.53,0A10.88,10.88,0,1,0,3.8,32.82,10.89,10.89,0,0,0,14.68,43.67Z"/><path class="cls-1" d="M22.94,20.47a1.33,1.33,0,0,1-1-.55l-7.34-7.34c-.46-.46-.9-1-.32-1.58s1.17-.29,1.68.23l7.42,7.42c.33.34.63.69.42,1.22A.89.89,0,0,1,22.94,20.47Z"/><path class="cls-1" d="M30.17,20.47a.92.92,0,0,1-1-1.26,2.55,2.55,0,0,1,.56-.71l7.17-7.19c.52-.52,1.09-1,1.76-.31s.08,1.18-.4,1.66l-7.17,7.17C30.83,20.13,30.56,20.48,30.17,20.47Z"/><path class="cls-1" d="M25.57,13.92c0-1.78,0-3.55,0-5.32,0-.67.2-1.2.93-1.21s1,.49,1,1.17c0,3.58,0,7.17,0,10.75,0,.67-.24,1.17-1,1.15s-.91-.58-.91-1.22C25.57,17.46,25.57,15.69,25.57,13.92Z"/><path class="cls-1" d="M41.58,35.91c-1.27,0-2.54,0-3.81,0-.62,0-1,.07-1,.84s-.82,1.18-1.59.61c-1.65-1.2-3.25-2.46-4.85-3.72-.72-.56-.64-1.17.05-1.71,1.55-1.2,3.09-2.41,4.67-3.58.95-.72,1.59-.48,1.73.71.09.7.45.67.93.67H45.3c1.41,0,1.59.19,1.59,1.6,0,1,0,2.08,0,3.12s-.47,1.51-1.53,1.48C44.12,35.88,42.85,35.91,41.58,35.91ZM32.34,32.8l2,1.57c.21.16.43.38.68.06.46-.58,1.11-.46,1.71-.46,2.43,0,4.86,0,7.28,0,1,0,1-.48,1-1.19s.07-1.25-1-1.22c-2.5.08-5,0-7.51,0-.34,0-.84.09-1-.09-.81-.9-1.31-.15-1.88.27C33.25,32.08,32.87,32.4,32.34,32.8Z"/><path class="cls-1" d="M6.12,32.78c0-3.27-.33-3.08,3-3.07h6.13c.54,0,.91,0,1-.74.11-1.09.79-1.33,1.7-.66,1.58,1.18,3.13,2.39,4.68,3.59.76.59.75,1.21,0,1.8-1.56,1.2-3.1,2.42-4.68,3.58-.89.66-1.58.4-1.71-.68-.09-.77-.52-.71-1-.71H8c-1.71,0-1.83-.12-1.83-1.84Zm14.55,0L18.6,31.2c-.18-.14-.4-.35-.59-.07-.47.68-1.17.47-1.8.47-2.43,0-4.86,0-7.28,0-1,0-1,.45-.93,1.13S7.78,34,8.89,34c2.43-.06,4.86,0,7.29,0,.63,0,1.32-.16,1.82.46.25.32.49,0,.69-.11C19.33,33.86,20,33.36,20.67,32.8Z"/></svg>