<svg id="Layer_1" data-name="Layer 1" xmlns="http://www.w3.org/2000/svg" width="53" height="53" viewBox="0 0 53 53"><defs><style>.cls-1{fill:#f9536e;}</style></defs><path class="cls-1" d="M28.7,41.21H18.93c-.3,0-.6,0-.89,0a.49.49,0,0,1-.49-.5.51.51,0,0,1,.44-.56,6.63,6.63,0,0,1,1-.05H38.32c1.51,0,1.62-.11,1.62-1.66V22c0-.33,0-.66,0-1s.14-.5.47-.52a.52.52,0,0,1,.6.5,4.9,4.9,0,0,1,0,.77c0,5.63,0,11.26,0,16.89,0,2-.65,2.6-2.6,2.6Z"/><path class="cls-1" d="M18.23,24.19c2.15,0,4.3,0,6.45,0a1.11,1.11,0,0,0,1.25-.8c.35-.93.81-1.82,1.19-2.74a1.52,1.52,0,0,1,1.56-1h4.67c.4,0,.9,0,.93.53s-.53.58-1,.59c-1.22,0-2.45.07-3.66,0-1-.06-1.61.18-1.89,1.2-.18.67-.6,1.28-.82,1.94a2,2,0,0,1-2.18,1.45c-4.11-.05-8.22,0-12.33,0-1.63,0-1.72.09-1.72,1.68v6.55c0,.44.07,1-.58,1s-.54-.59-.54-1c0-2.37,0-4.74,0-7.11a2,2,0,0,1,2.19-2.2C13.94,24.17,16.08,24.19,18.23,24.19Z"/><path class="cls-1" d="M16.79,17.43c1.59,0,3.18,0,4.77,0a1,1,0,0,0,1.1-.78c1.12-3.73.56-3.22,4.54-3.25,2.15,0,4.29,0,6.44,0,.45,0,1,0,1,.58s-.59.54-1,.54c-2.7,0-5.4,0-8.1,0a1.11,1.11,0,0,0-1.33.93c-1.12,3.51-.44,3.09-4.3,3.11-2.48,0-5,0-7.44,0-1.59,0-1.73.14-1.73,1.69,0,.66,0,1.33,0,2,0,.36-.08.69-.51.71s-.6-.33-.6-.74c0-1,0-1.93,0-2.89a2,2,0,0,1,2.18-1.9C13.46,17.4,15.12,17.43,16.79,17.43Z"/><path class="cls-1" d="M44.4,2.7a1.32,1.32,0,0,1,1.08.48c1.67,1.77,3.35,3.54,5,5.32a1.38,1.38,0,0,1,0,2.14c-2.27,2.4-2.47,2.41-4.72,0l-2.9-3.06C40.9,5.53,40.9,5.46,43,3.5,43.41,3.13,43.77,2.67,44.4,2.7Zm-.1,1.17a11.65,11.65,0,0,1-1,.93c-.7.5-.73.92-.09,1.54,1.24,1.21,2.4,2.5,3.59,3.77s1.27,1.34,2.63,0c.4-.4.46-.64.05-1.07-1.54-1.59-3-3.21-4.56-4.82C44.75,4.05,44.62,3.85,44.3,3.87Z"/><path class="cls-1" d="M37.23,13.38h.26c.84.19,1.9,0,2.28,1s-.42,1.71-1.06,2.38a8.58,8.58,0,0,0-2,2.25c-.2.44-.41.95.07,1.31s.78-.05,1.09-.29a20.88,20.88,0,0,0,1.66-1.46,7.44,7.44,0,0,1,2.5-1.8A4.18,4.18,0,0,0,44,14.9c.49-.79,1-1.56,1.5-2.33a.6.6,0,0,1,.87-.22.54.54,0,0,1,.09.79c-.79,1.21-1.57,2.42-2.39,3.6a2.23,2.23,0,0,1-.92.78,12.59,12.59,0,0,0-3.77,2.86,8.61,8.61,0,0,1-1.15.86,1.69,1.69,0,0,1-2.16,0A1.93,1.93,0,0,1,35.56,19a4.71,4.71,0,0,1,.95-1.62c.32-.35.69-.67,1-1s1.25-.87,1.09-1.42-1-.43-1.65-.49c-.41,0-.77-.19-.68-.67S36.88,13.39,37.23,13.38Z"/><path class="cls-1" d="M18.72,36a3.8,3.8,0,0,1-.79,2.11,14.79,14.79,0,0,0-2.41,4.32A3.61,3.61,0,0,1,14.23,44c-.78.68-1.58,1.34-2.35,2-.32.27-.63.43-1,.07s-.08-.64.16-.87a21.06,21.06,0,0,1,1.76-1.52,5,5,0,0,0,2.09-3,3.74,3.74,0,0,1,.73-1.36c.49-.69,1-1.37,1.44-2.1.26-.44.84-1,.29-1.47s-1.22,0-1.64.48c-.75.81-1.39,1.72-2.12,2.55a1.56,1.56,0,0,1-1.88.58.81.81,0,0,1-.56-1c.15-.44.52-.45.91-.23s.73-.17,1-.45c.6-.7,1.12-1.47,1.74-2.16a2.8,2.8,0,0,1,2.44-1.07A1.5,1.5,0,0,1,18.72,36Z"/><path class="cls-1" d="M33.08,38c-.77,0-1.55,0-2.32,0-1.23,0-1.59-.54-1.58-2.12,0-1.41.36-1.88,1.54-1.9,1.62,0,3.25,0,4.87,0,1.14,0,1.51.5,1.53,1.81,0,1.61-.33,2.15-1.49,2.21C34.78,38.07,33.93,38,33.08,38Zm.06-1.13c.7,0,1.4,0,2.09,0S36,36.56,36,36s0-.92-.75-.89c-1.29,0-2.58,0-3.86,0-.63,0-1.13-.05-1.12.88s.44.94,1.1.9S32.55,36.91,33.14,36.91Z"/><path class="cls-1" d="M19.8,21.13c-1.67,0-3.34,0-5,0-.79,0-1.21.16-1.07,1a2.14,2.14,0,0,1-.06.66.47.47,0,0,1-.47.39.52.52,0,0,1-.56-.42c-.57-1.57.21-2.77,1.85-2.77q5.22,0,10.44,0c.44,0,1.11-.17,1.1.56s-.67.56-1.12.57C23.2,21.14,21.5,21.13,19.8,21.13Z"/><path class="cls-1" d="M4,42.74A1.46,1.46,0,0,1,5.14,43l5.34,3.4a1.33,1.33,0,0,1,.52,2c-.27.53-.59,1-.9,1.53a.56.56,0,0,1-.84.27.54.54,0,0,1-.14-.78l.05-.11c.21-.63,1.13-1.15.74-1.82s-1.12-.8-1.71-1.18C7.11,45.62,6,45,4.93,44.22c-.55-.37-.88-.41-1.18.26A7.78,7.78,0,0,1,3,45.71a.5.5,0,0,1-.67.23A.53.53,0,0,1,2,45.41,6.32,6.32,0,0,1,3.78,42.8.94.94,0,0,1,4,42.74Z"/><path class="cls-1" d="M35.06,13.15a.52.52,0,0,1-.53-.24.63.63,0,0,1,.15-.8,13.24,13.24,0,0,1,2.14-1.74c1.47-1,3.33-1.47,4.47-3a.44.44,0,0,1,.69,0,.51.51,0,0,1,.13.69,3.46,3.46,0,0,1-1.3,1.33c-1.86,1.12-3.89,2-5.43,3.58A1.19,1.19,0,0,1,35.06,13.15Z"/><path class="cls-1" d="M9.29,36.48c-.14.28-.32.6-.46.94L7.43,40.9a4,4,0,0,1-1.19,1.71.55.55,0,0,1-.72,0,.47.47,0,0,1-.1-.69C6.79,40.42,7,38.37,7.93,36.67a4.6,4.6,0,0,1,.48-.73A.48.48,0,0,1,9,35.87.53.53,0,0,1,9.29,36.48Z"/><path class="cls-1" d="M20.18,14h1.68c.37,0,.69.11.67.55s-.33.55-.69.56a7.39,7.39,0,0,1-1.33,0,1.68,1.68,0,0,0-2.11,1.23c-.13.41-.35,1.07-1,.75s-.18-.81,0-1.24C17.92,14.43,18.78,13.58,20.18,14Z"/><path class="cls-1" d="M33.14,29.11h2.44c.34,0,.7,0,.73.49s-.25.62-.62.62c-1.7,0-3.4,0-5.1,0A.56.56,0,0,1,30,29.6c0-.44.38-.49.73-.49Z"/><path class="cls-1" d="M33.17,31.56h2.44c.35,0,.69.07.7.52s-.28.59-.65.59h-5c-.37,0-.69-.15-.7-.55s.36-.58.76-.58Z"/></svg>