<svg id="Layer_1" data-name="Layer 1" xmlns="http://www.w3.org/2000/svg" width="53" height="53" viewBox="0 0 53 53"><defs><style>.cls-1{fill:#1358dd;}</style></defs><path class="cls-1" d="M26.53,5.25h18.4c2.71,0,3.89,1.17,3.9,3.86V32.34c0,2.72-1.15,3.86-3.88,3.87-4.22,0-8.44,0-12.66,0-.7,0-1,.16-.89.91a11.49,11.49,0,0,0,.92,4,3.31,3.31,0,0,0,3.25,2.06c.51,0,1,0,1.55,0a2.59,2.59,0,0,1,2.08,3.83,1.23,1.23,0,0,1-.94.65,6.85,6.85,0,0,1-.91,0H15.68c-1.48,0-2-.4-2.09-1.54-.09-1.71.64-2.83,2-3,.64-.06,1.28,0,1.91,0a3.25,3.25,0,0,0,3.14-2,11,11,0,0,0,1-4.5c0-.74-.49-.55-.87-.55H8a5.35,5.35,0,0,1-1.54-.13,3.13,3.13,0,0,1-2.26-3.17q0-12.15,0-24.31c0-2.13,1.35-3.34,3.58-3.35Zm-.1,30H45.11c2,0,2.79-.78,2.79-2.82q0-11.71,0-23.41c0-2.09-.78-2.89-2.84-2.89H8C5.87,6.17,5.1,7,5.1,9.1V32.42c0,2.11.75,2.87,2.84,2.87Zm6.19,7.87a9.51,9.51,0,0,1-2.14-6.39c0-.44-.21-.57-.62-.57H23.14c-.41,0-.61.12-.62.56a9.68,9.68,0,0,1-2.12,6.4Zm-6.11,3.67h1.55c3.15,0,6.3,0,9.46,0,.76,0,1-.27,1-1,0-1.2-.5-1.69-1.74-1.69q-10.28,0-20.56,0a3.38,3.38,0,0,0-.45,0c-.9.12-1.27.74-1.26,1.88s.71.81,1.28.81C19.35,46.84,22.93,46.83,26.51,46.83Z"/><path class="cls-1" d="M26.46,31.58H8.06c-1.46,0-1.7-.22-1.7-1.69V9.13c0-1.47.23-1.69,1.7-1.69q18.44,0,36.89,0c1.47,0,1.69.22,1.69,1.69V29.89c0,1.46-.23,1.69-1.69,1.69Zm0-.92c4.13,0,8.26,0,12.39,0,.66,0,1-.1.94-.88q0-10.29,0-20.58c0-.66-.15-.88-.85-.88q-12.48,0-25,0c-.7,0-.85.22-.84.88q0,10.29,0,20.59c0,.78.29.87.95.87C18.24,30.65,22.37,30.66,26.5,30.66Zm14.23-3.52c0,1,0,1.94,0,2.91,0,.48.16.63.63.62,1.24,0,2.49,0,3.73,0,.47,0,.64-.17.64-.63q0-2.82,0-5.64c0-.43-.18-.58-.6-.58-1.28,0-2.55,0-3.82,0-.43,0-.59.16-.58.59C40.75,25.32,40.73,26.23,40.73,27.14Zm5-15.32c0-.91,0-1.82,0-2.73,0-.54-.15-.76-.72-.74-1.18,0-2.36,0-3.55,0-.53,0-.74.13-.73.71,0,1.82,0,3.64,0,5.46,0,.5.13.7.66.68,1.21,0,2.42,0,3.64,0,.58,0,.72-.21.7-.74C45.7,13.58,45.72,12.7,45.72,11.82Zm-5,7.63c0,.94,0,1.88,0,2.82,0,.48.16.64.63.63,1.24,0,2.49,0,3.73,0,.47,0,.65-.14.64-.62,0-1.85,0-3.71,0-5.56,0-.47-.16-.63-.63-.62-1.25,0-2.49,0-3.74,0-.46,0-.65.13-.63.62C40.75,17.63,40.73,18.54,40.73,19.45ZM9.51,19c.81,0,1.48,0,2.14,0,.47,0,.66-.13.63-.62s0-1.21,0-1.81c0-.78.33-1.79-.14-2.28s-1.54-.18-2.35-.18-1.82-.37-2.34.19-.15,1.5-.14,2.28S7,18.39,7.47,18.9,8.91,19,9.51,19Zm2.76,3.31c0-.61,0-1.21,0-1.82,0-.43-.15-.58-.58-.58-1.27,0-2.54,0-3.81,0-.51,0-.61.23-.61.66,0,1.21,0,2.43,0,3.64,0,.48.17.62.64.61,1.24,0,2.48,0,3.72,0,.56,0,.66-.23.64-.71S12.27,23,12.27,22.35ZM9.74,30.66a.27.27,0,0,0,.09,0c.78-.05,1.78.33,2.28-.15s.14-1.5.15-2.27.27-1.84-.13-2.28-1.6-.16-2.43-.17-1.79-.35-2.27.15-.13,1.51-.14,2.29C7.27,30.66,7.29,30.66,9.74,30.66Zm2.55-19.93c-.12-.74.34-1.72-.2-2.23s-1.45-.1-2.2-.14H9.71c-2.42,0-2.43,0-2.42,2.39,0,.78-.33,1.8.14,2.29s1.55.17,2.35.17,1.84.37,2.35-.17S12.21,11.54,12.29,10.73Z"/><path class="cls-1" d="M34.18,19.56c0,1.24,0,2.48,0,3.73a1,1,0,0,1-.59,1q-3.29,1.86-6.54,3.78a1,1,0,0,1-1.16,0c-2.15-1.26-4.3-2.51-6.46-3.73a1.1,1.1,0,0,1-.63-1.08q0-3.73,0-7.47a1.1,1.1,0,0,1,.63-1.08q3.21-1.8,6.38-3.68a1.14,1.14,0,0,1,1.33,0q3.21,1.9,6.46,3.73a1,1,0,0,1,.58,1C34.16,17,34.18,18.28,34.18,19.56Zm-.92-3.42c-2.09,1.21-4,2.32-5.92,3.41a.75.75,0,0,0-.38.76c0,2,0,4,0,6,0,.63.19.65.67.36,1.7-1,3.42-2,5.12-3,.26-.15.52-.28.51-.67C33.25,20.81,33.26,18.56,33.26,16.14ZM24.31,18.9v1.54c0,.38-.16.77-.57.6a10,10,0,0,1-2-1.14c-.44-.32-.22-.9-.23-1.37,0-1.61,0-1.61-1.71-2.26v6.9c0,.34.3.43.53.56,1.7,1,3.41,2,5.1,3,.51.3.67.22.67-.38,0-1.7,0-3.39,0-5.09S26,19.55,24.31,18.9Zm3.77-6.11c-.66-.34-1.09-1.31-1.87-.89-2,1.06-3.93,2.23-6.1,3.49.92.16,1.32,1.22,2.24.7C24.28,15,26.17,13.89,28.08,12.79Zm-3.19,5.12a2,2,0,0,0,3.06.25,12.24,12.24,0,0,1,1.57-.93l3.17-1.83a2,2,0,0,0-3.06-.25,17.83,17.83,0,0,1-2,1.19Zm-2.05-1c.57.26.83.69,1.34.39,1.94-1.14,3.9-2.26,5.94-3.44-.44-.24-.71-.71-1.18-.45C27,14.49,25,15.64,22.84,16.87Zm.55,2.87c0-.44,0-.79,0-1.15a.74.74,0,0,0-.76-.73c-.45,0-.2.44-.25.68C22.26,19.25,22.64,19.58,23.39,19.74Z"/><path class="cls-1" d="M43.32,26.8c.27,0,.54,0,.81,0s.58,0,.59.41-.24.48-.54.48c-.63,0-1.27,0-1.9,0-.3,0-.55-.14-.54-.48s.29-.42.58-.42Z"/><path class="cls-1" d="M43.25,11.34h1c.27,0,.48.13.47.44a.44.44,0,0,1-.47.45c-.67,0-1.33,0-2,0a.45.45,0,0,1-.51-.5c0-.31.25-.39.51-.39Z"/><path class="cls-1" d="M43.24,19.05c.33,0,.66,0,1,0a.44.44,0,0,1,.48.44.41.41,0,0,1-.45.45c-.7,0-1.39,0-2.09,0a.41.41,0,0,1-.44-.38.43.43,0,0,1,.41-.51c.36,0,.72,0,1.09,0Z"/><path class="cls-1" d="M9.81,17c-.36,0-.73,0-1.09,0a.41.41,0,0,1-.44-.38.42.42,0,0,1,.41-.5c.69,0,1.39,0,2.09,0a.46.46,0,0,1,.49.44c0,.34-.23.46-.55.46H9.81Z"/><path class="cls-1" d="M9.74,22.85h-1a.42.42,0,0,1-.46-.45A.4.4,0,0,1,8.67,22c.72,0,1.45,0,2.18,0a.44.44,0,0,1,0,.88Z"/><path class="cls-1" d="M9.78,28.66c-.36,0-.73,0-1.09,0a.43.43,0,0,1-.41-.5.41.41,0,0,1,.44-.38l2,0c.32,0,.56.13.55.46s-.26.46-.58.46H9.78Z"/><path class="cls-1" d="M9.73,11.25H8.91c-.31,0-.64-.05-.63-.47s.29-.43.58-.44h1.82c.3,0,.57.11.58.44s-.3.47-.62.47Z"/></svg>