<svg id="Layer_1" data-name="Layer 1" xmlns="http://www.w3.org/2000/svg" width="53" height="53" viewBox="0 0 53 53"><defs><style>.cls-1{fill:#ff8139;}</style></defs><path class="cls-1" d="M5.67,26.5c0-4.64,0-9.28,0-13.92,0-2.68,1.5-4.18,4.18-4.19.6,0,1.2,0,1.79,0a1.72,1.72,0,0,1,1.9,1.91c0,1.15,0,1.15,1.21,1.15,6.49,0,13,0,19.48,0,.67,0,.89-.17.84-.85,0-.88,0-1.76,0-2.64A3.32,3.32,0,1,1,41.7,8c0,.91,0,1.82,0,2.73,0,.58.12.82.74.78s1.48,0,2.22,0c1.84,0,2.67.82,2.67,2.65V36.49c0,1.85,0,3.7,0,5.55a2.28,2.28,0,0,1-2.59,2.57c-1.05,0-2.11,0-3.16,0-.53,0-.84.11-1,.67a14.64,14.64,0,0,1-.49,1.55c-.37,1.09-.92,1.57-1.77,1.56S37,47.9,36.67,46.85a9.85,9.85,0,0,1-.42-1.3c-.14-.72-.5-1-1.28-1-4.12,0-8.25,0-12.38,0H9.86c-2.68,0-4.19-1.51-4.19-4.18C5.66,35.79,5.67,31.14,5.67,26.5Zm29.39,1c0-4.56,0-9.12,0-13.67,0-.8-.16-1.06-1-1.05-6.46,0-12.93,0-19.39,0-1.3,0-1.13-.09-1.13,1.16,0,7.49,0,15,0,22.47,0,1.47-.6,2.06-2.08,2.07-.71,0-1.42,0-2.13,0A2.39,2.39,0,0,0,7,41.08c.09,1.36,1.12,2.21,2.73,2.21h25.2c.46,0,.55-.17.4-.56a6.51,6.51,0,0,1-.26-2.28ZM46,28V25.52c0-3.81,0-7.63,0-11.45,0-1.1-.19-1.29-1.3-1.3-.8,0-1.59,0-2.39,0-.5,0-.63.18-.62.65,0,1.08,0,2.16,0,3.24,0,.45-.11.84-.61.86s-.69-.4-.7-.87c0-.63,0-1.26,0-1.88,0-.41-.15-.52-.55-.55-.69-.07-.85.2-.85.86q0,11.58,0,23.16c0,.6,0,1.2,0,1.79,0,.4.14.54.54.58.67.06.87-.17.87-.85,0-6.33,0-12.65,0-19a8.17,8.17,0,0,1,0-.86c0-.38.24-.65.66-.63a.62.62,0,0,1,.62.67c0,.23,0,.46,0,.69V40.39a6.48,6.48,0,0,1-.27,2.36c-.16.44,0,.55.43.55.94,0,1.88,0,2.82,0,1.14,0,1.32-.19,1.32-1.36C46,37.29,46,32.65,46,28ZM7,38a5,5,0,0,1,2-.75l2.13,0c1.18,0,1.18,0,1.18-1.19V12.06c0-2.36,0-2.36-2.39-2.35-2.05,0-2.9.85-2.9,2.89Q7,24.83,7,37ZM37.76,27.35v-5c0-2.45,0-4.89,0-7.34,0-.51-.07-.76-.68-.77s-.71.3-.71.83q0,12.38,0,24.76c0,.54.07.82.72.82s.67-.4.67-.88C37.75,35.6,37.76,31.48,37.76,27.35ZM38.36,10c2.24,0,2.24,0,2-2.22a2,2,0,0,0-4,0C36.22,10,36.22,10,38.36,10Zm2,31.9c-1.23,0-2.31,0-3.39,0-.44,0-.55.1-.4.53.47,1.39.92,2.8,1.37,4.21.07.23.17.44.44.43s.36-.22.44-.45C39.33,45.07,39.83,43.53,40.37,41.89ZM38.36,13c.49,0,1,0,1.45,0,.71,0,.59-.45.59-.86s.14-.87-.58-.84c-.91.05-1.82,0-2.73,0-.55,0-.71.15-.74.71,0,.77.18,1.11,1,1A6.93,6.93,0,0,1,38.36,13Z"/><path class="cls-1" d="M17.92,23.35c0,.65,0,1.16,0,1.66s-.19.81-.7.78-.61-.36-.61-.78c0-.74,0-1.48,0-2.22a1.73,1.73,0,0,1,.9-1.46l6.21-3.58a1.78,1.78,0,0,1,1.93,0l6.06,3.49a1.89,1.89,0,0,1,1,1.75v7a1.89,1.89,0,0,1-1,1.75c-2,1.15-4,2.29-6,3.45a1.91,1.91,0,0,1-2.09,0q-3-1.76-6-3.46A1.92,1.92,0,0,1,16.61,30c0-.57,0-1.14,0-1.71a.64.64,0,0,1,.61-.69c.46,0,.65.28.7.7a1,1,0,0,1,0,.25c-.35,1.56.45,2.36,1.79,3a40.09,40.09,0,0,1,3.7,2.12c.54.33.65.18.65-.4,0-1.93,0-3.87,0-5.8,0-.26,0-.52-.26-.67l-1-.56Zm13.53,0c-1.15.66-2.18,1.24-3.2,1.84s-2.23.92-2.77,1.75-.14,2.21-.16,3.34,0,2.35,0,3.67l5.82-3.36a.61.61,0,0,0,.31-.57Zm-.64-1.13L25,18.87a.63.63,0,0,0-.66,0l-5.79,3.34,5.88,3.39a.44.44,0,0,0,.48,0Z"/></svg>