<svg id="Layer_1" data-name="Layer 1" xmlns="http://www.w3.org/2000/svg" width="53" height="53" viewBox="0 0 53 53"><defs><style>.cls-1{fill:#1358dd;}</style></defs><path class="cls-1" d="M40.19,20.26q2-2,4-4c1-1,1.17-1,2.18,0l2,2c1,1,1,1.18,0,2.19-2.58,2.58-5.15,5.16-7.75,7.72a1.88,1.88,0,0,0-.61,1.5c0,3,0,6,0,9,0,1.28-.14,1.42-1.46,1.42H21.75c-.68,0-1.16,0-.91.94a5.45,5.45,0,0,1,0,1.89,1.76,1.76,0,0,1-1.56,1.7c-1.25.22-1.48.62-1.08,1.87a1.83,1.83,0,0,1-.69,2.21,8.28,8.28,0,0,1-1.73,1,1.83,1.83,0,0,1-2.33-.54c-.78-.93-1.31-.92-2.09,0a1.81,1.81,0,0,1-2.25.55,7.65,7.65,0,0,1-1.82-1,1.79,1.79,0,0,1-.67-2.21c.43-1.21.18-1.63-1.09-1.87A1.72,1.72,0,0,1,4,43a9.3,9.3,0,0,1,0-2.11,1.78,1.78,0,0,1,1.64-1.73c1.17-.2,1.43-.67,1-1.83a1.52,1.52,0,0,1,0-1.45,3.28,3.28,0,0,0,.46-2.19q0-14.46,0-28.91c0-1.57.09-1.67,1.62-1.67H38.34c1.57,0,1.63.07,1.63,1.65V20.11ZM38.36,30.35l-4,4a2.49,2.49,0,0,1-.93.74c-1.4.46-2.79.94-4.19,1.37-.9.27-1.37-.21-1.12-1.12s.51-1.59.77-2.39c.6-1.81.6-1.81-1.29-1.81H21.26c-.57,0-1-.14-1-.81s.49-.8,1-.8H22c2.68,0,5.36,0,8,0a1.86,1.86,0,0,0,1.49-.63q3.09-3.15,6.25-6.24a1.86,1.86,0,0,0,.62-1.49c0-5.12,0-10.24,0-15.35,0-1-.32-1.14-1.19-1.14-9.07,0-18.13,0-27.2,0-1.28,0-1.28,0-1.28,1.33V33c0,.2,0,.4,0,.6,0,.43.08.59.58.43a1.76,1.76,0,0,1,2.06.62c.78.94,1.3,1,2.09,0a1.81,1.81,0,0,1,2.33-.54,8.24,8.24,0,0,1,1.73,1,1.83,1.83,0,0,1,.68,2.22c-.36,1.12-.33,1.15.91,1.15h14c1.5,0,3,0,4.52,0,.5,0,.7-.15.7-.68C38.35,35.4,38.36,33,38.36,30.35ZM15.06,48.21c.64,0,1.63-.91,1.53-1.38-.48-2.23,0-3.19,2.2-3.8.67-.19.5-.65.47-1s.33-1-.41-1.26c-2.32-.79-2.72-1.48-2.24-3.86.14-.7-.43-.76-.78-1s-.68-.67-1.22-.17c-1.69,1.56-2.77,1.57-4.38,0-.57-.55-.92,0-1.3.17s-.89.29-.7,1c.53,2.08-.13,3.25-2.14,3.75-.79.2-.53.76-.53,1.17s-.24,1,.56,1.16c2,.49,2.69,1.75,2.13,3.67-.22.75.3.87.7,1.09s.79.69,1.37.06a2.65,2.65,0,0,1,4.19,0C14.67,48,14.76,48.27,15.06,48.21ZM30.17,34.42a7.5,7.5,0,0,0,3.74-1.86c4-4.07,8-8.06,12-12.08,1.2-1.2,1.18-1.17,0-2.38-.51-.54-.8-.61-1.37,0-4,4.07-8,8.13-12.14,12.11A7.37,7.37,0,0,0,30.17,34.42Z"/><path class="cls-1" d="M27.46,12.05h6c.59,0,1.13.08,1.13.8s-.53.82-1.12.82H21.37c-.58,0-1.12-.08-1.13-.81s.54-.81,1.12-.81Z"/><path class="cls-1" d="M27.42,20.81h5.92c.58,0,1.24,0,1.26.77s-.6.84-1.21.84H21.45c-.6,0-1.23,0-1.21-.83s.68-.78,1.25-.78Z"/><path class="cls-1" d="M14.07,14.82a4,4,0,0,1-2.13-2,.72.72,0,0,1,.45-.72.79.79,0,0,1,1,.24c.45.62.8.45,1.23,0A14.23,14.23,0,0,1,16,10.92a.72.72,0,0,1,1.08,0,.73.73,0,0,1,0,1.08c-.83.87-1.69,1.72-2.55,2.56A1.41,1.41,0,0,1,14.07,14.82Z"/><path class="cls-1" d="M12.71,20.84a.83.83,0,0,1,.71.32c.4.56.74.48,1.15,0a17,17,0,0,1,1.27-1.28c.39-.37.83-.48,1.23-.05A.77.77,0,0,1,17,21c-.8.82-1.6,1.62-2.42,2.42a.7.7,0,0,1-1,.13,10.43,10.43,0,0,1-1.49-1.48A.74.74,0,0,1,12.71,20.84Z"/><path class="cls-1" d="M17.28,29.16a.9.9,0,0,1-.31.71c-.78.79-1.56,1.57-2.35,2.34a.8.8,0,0,1-1.24,0c-.41-.4-.82-.79-1.2-1.21a.75.75,0,0,1,0-1.09.71.71,0,0,1,1.14,0c.66.88,1.06.32,1.53-.17S15.56,29,16,28.63a.77.77,0,0,1,.93-.12A.72.72,0,0,1,17.28,29.16Z"/><path class="cls-1" d="M9,41.91a3.4,3.4,0,0,1,3.41-3.45,3.43,3.43,0,0,1,.05,6.85A3.41,3.41,0,0,1,9,41.91Zm5.23,0a1.83,1.83,0,0,0-1.79-1.8,1.76,1.76,0,0,0-1.82,1.74,1.78,1.78,0,0,0,1.81,1.86A1.85,1.85,0,0,0,14.23,41.89Z"/></svg>