<svg id="Layer_1" data-name="Layer 1" xmlns="http://www.w3.org/2000/svg" width="53" height="53" viewBox="0 0 53 53"><defs><style>.cls-1{fill:#3cc;}</style></defs><path class="cls-1" d="M36.36,25.68c2.74,0,5.48,0,8.21,0a1.07,1.07,0,0,0,1-.53,2.2,2.2,0,0,1,2.62-.93,2.32,2.32,0,0,1,0,4.41,2.22,2.22,0,0,1-2.65-.88,1.09,1.09,0,0,0-1-.56q-8.25,0-16.5,0c-.61,0-.94.13-.83.8a1.08,1.08,0,0,1,0,.18c0,1.37,0,1.37,1.33,1.37H39.27c1.92,0,2.78.85,2.79,2.77,0,.64,0,1.28,0,1.92a2.34,2.34,0,0,0,.9,2.33,2.17,2.17,0,0,1-.11,3.3,2.33,2.33,0,0,1-3.34-.24,2.24,2.24,0,0,1,.36-3.3,1.4,1.4,0,0,0,.67-1.42c0-.91,0-1.82,0-2.74,0-.72-.33-1-1.05-1q-5.74,0-11.49,0c-.57,0-.73.2-.72.74,0,1.89-.2,1.55,1.52,1.57,2,0,4.07,0,6.11,0h.55c.58,0,1.17.07,1.14.84S36,35,35.45,35c-2.46,0-4.93,0-7.39,0-.65,0-.83.19-.81.83s.18.75.73.73c1.16,0,2.31,0,3.47,0,2,0,2.84.88,2.85,2.83,0,1.22,0,2.44,0,3.65a1,1,0,0,0,.49,1,2.25,2.25,0,0,1,.94,2.63,2.33,2.33,0,0,1-4.43.06,2.27,2.27,0,0,1,1-2.71.92.92,0,0,0,.46-.88c0-1.3,0-2.61,0-3.92,0-.72-.31-1.06-1-1.05h-4.1c-.21,0-.43-.06-.59.15a2,2,0,0,1-2.09.53,12.46,12.46,0,0,1-1.2-24.49A17.22,17.22,0,0,1,25.59,14a1.11,1.11,0,0,1,.8.12c1.77,1.24,3.75.37,5.63.57.49.06.7-.39.7-.88,0-1.4,0-2.8,0-4.2,0-.37-.18-.52-.44-.7a2.32,2.32,0,0,1-1-2.7,2.36,2.36,0,0,1,2.22-1.6,2.32,2.32,0,0,1,2.22,1.59,2.25,2.25,0,0,1-1,2.69.93.93,0,0,0-.44.9c0,1.28,0,2.55,0,3.83a2.4,2.4,0,0,1-2.64,2.68c-1.24,0-2.49,0-3.73,0-.63,0-.67.31-.67.8s.06.77.68.76c2.16,0,4.31,0,6.47,0h1c.59,0,1.18.06,1.17.81s-.63.78-1.2.78h-4.2c-1.06,0-2.12,0-3.19,0-.54,0-.75.16-.73.72,0,1.92-.19,1.57,1.51,1.58,3.49,0,7,0,10.48,0,1.1,0,1.26-.17,1.27-1.28,0-.61,0-1.22,0-1.82a2.35,2.35,0,0,0-.9-2.34,2.17,2.17,0,0,1,.11-3.3,2.34,2.34,0,0,1,3.34.24,2.25,2.25,0,0,1-.36,3.31A1.4,1.4,0,0,0,42.05,18c0,.94,0,1.88,0,2.82a2.33,2.33,0,0,1-2.57,2.53c-3.74,0-7.48,0-11.22,0-.78,0-1.14.17-1,1a1.77,1.77,0,0,1,0,.46c-.11.7.15.94.89.93C30.89,25.65,33.63,25.68,36.36,25.68Zm-10.62.78V17.81c0-2.52,0-2.52-2.49-1.76a10.89,10.89,0,0,0,1.3,21.12c1.15.21,1.19.18,1.19-1ZM33.47,6.21a.77.77,0,0,0-.72.75.71.71,0,0,0,.79.78A.7.7,0,0,0,34.26,7C34.25,6.53,34,6.27,33.47,6.21ZM48.26,26.44a.7.7,0,0,0-.76-.73.74.74,0,0,0,0,1.48C48,27.19,48.22,26.9,48.26,26.44ZM33.5,46.68a.76.76,0,0,0,.76-.75.69.69,0,0,0-.71-.77.7.7,0,0,0-.8.77A.76.76,0,0,0,33.5,46.68ZM42,14.7a.71.71,0,0,0-.76-.67.74.74,0,1,0,0,1.48C41.77,15.51,42,15.23,42,14.7Zm-.8,24.17a.71.71,0,0,0,.79-.71.74.74,0,1,0-1.48-.08A.7.7,0,0,0,41.24,38.87Z"/><path class="cls-1" d="M27.27,7.84c0,.91,0,1.82,0,2.73,0,1.27-.44,1.75-1.71,1.88-5.73.61-9.86,3.49-12,8.83A14,14,0,0,0,24.8,40.34l1.09.13a1.42,1.42,0,0,1,1.36,1.45c0,2.13,0,4.26,0,6.39a1.42,1.42,0,0,1-.84,1.31c-1.53.78-3.87-.21-4-1.89a2.86,2.86,0,0,0-2.67-3,7.74,7.74,0,0,1-2.72-1.25,1.06,1.06,0,0,0-1.51.11,10.55,10.55,0,0,1-1.34,1,2.1,2.1,0,0,1-2.62-.11,20.2,20.2,0,0,1-3-2.95,2,2,0,0,1-.08-2.75,2.88,2.88,0,0,0,.3-4.18,8.21,8.21,0,0,1-1.08-2.88c-.12-.53-.34-.81-.89-.82-.24,0-.48-.1-.72-.12-2.64-.2-2.94-1.4-3-3.47a15.83,15.83,0,0,1,.13-3c.17-1,.76-1.82,1.75-1.81,2.11,0,2.93-1.1,3.32-3a8.58,8.58,0,0,1,1.28-2.7.77.77,0,0,0-.07-1.05c-.36-.44-.68-.93-1-1.4a2.18,2.18,0,0,1,.1-2.92,19.92,19.92,0,0,1,2.83-2.83,2,2,0,0,1,2.75-.11c1.41,1.37,2.71,1.34,4.26.28a8.43,8.43,0,0,1,2.89-1.06.82.82,0,0,0,.74-.86c0-.33.13-.66.16-1,.22-2.59,1.71-2.76,3.58-2.7a1.45,1.45,0,0,1,1.39,1.52c0,1.07,0,2.13,0,3.2Zm-1.55,0h0c0-.73,0-1.46,0-2.19,0-.35.28-.94-.48-.91-.56,0-1.21-.09-1.31.77s-.27,1.61-.39,2.42a1.15,1.15,0,0,1-1,1.1,16.69,16.69,0,0,0-5.6,2.33,1,1,0,0,1-1.33,0c-.68-.51-1.39-1-2.07-1.5a.8.8,0,0,0-1.14,0A33.54,33.54,0,0,0,10,12.22a.93.93,0,0,0,0,1.37c.48.63.91,1.29,1.39,1.92a1,1,0,0,1,.06,1.33A17.1,17.1,0,0,0,9,22.52a1.09,1.09,0,0,1-1,1c-.81.13-1.61.29-2.42.39a.79.79,0,0,0-.78.83,26.64,26.64,0,0,0,0,3.46.84.84,0,0,0,.84.88c.79.09,1.56.25,2.34.37a1.16,1.16,0,0,1,1.09,1A16.45,16.45,0,0,0,11.35,36a1.13,1.13,0,0,1,0,1.49c-.49.62-.92,1.29-1.39,1.92a.88.88,0,0,0,0,1.29c.76.84,1.56,1.62,2.39,2.38a.83.83,0,0,0,1.21,0c.63-.48,1.3-.91,1.92-1.39A1.14,1.14,0,0,1,17,41.59a16.07,16.07,0,0,0,5.52,2.3,1.21,1.21,0,0,1,1.06,1.16c.11.81.25,1.62.38,2.43s.82.68,1.36.7.41-.49.42-.81c0-1.06,0-2.12,0-3.19,0-.69.28-1.54-.13-2s-1.25-.26-1.9-.37A15.58,15.58,0,0,1,25,11c.56,0,.73-.23.71-.77C25.7,9.39,25.72,8.6,25.72,7.81Z"/></svg>