<svg id="Layer_1" data-name="Layer 1" xmlns="http://www.w3.org/2000/svg" width="53" height="53" viewBox="0 0 53 53"><defs><style>.cls-1{fill:#f9536e;}</style></defs><path class="cls-1" d="M6.5,33V17.52c0-1.27.12-1.35,1.4-1.39.8,0,1.83.36,2.34-.19s.12-1.5.14-2.28c0-1.31.11-1.42,1.46-1.42,3.94,0,7.88,0,11.82,0a1,1,0,0,0,1.09-.73c.42-.95.74-1.81.06-2.78-.29-.41-.11-.83.25-1.17a7.72,7.72,0,0,0,1-1c.8-1.06,1.71-1.51,2.92-.66.48.34.81-.12,1.21-.23a2.37,2.37,0,0,0,2-1.91c.08-.45.48-.62.94-.62a12,12,0,0,0,1.59,0C36,3,36.85,3.33,37.09,4.7c.06.35.33.48.64.61,1.08.45,2.13,1,3.29.17.32-.24.66-.05.93.21a14.91,14.91,0,0,0,1.13,1.12c1,.79,1.47,1.66.63,2.85-.08.12-.18.35-.13.43.6.93.44,2.42,2,2.7.71.12,1,.61.91,1.3a6,6,0,0,0,0,1.12c.17,1.32-.06,2.34-1.6,2.64-.66.12-.51.86-.78,1.28a1.89,1.89,0,0,0,0,2.32,1,1,0,0,1-.23,1.34,7.19,7.19,0,0,0-1,1c-.79,1-1.66,1.49-2.85.63-.47-.33-.81.12-1.21.2-1.71.34-2,1.49-2,3,.06,5.66,0,11.32,0,17,0,1.19-.17,1.34-1.34,1.38-.83,0-1.89-.37-2.43.19s-.12,1.55-.14,2.36c0,1.19-.13,1.33-1.36,1.33H7.88c-1.25,0-1.38-.13-1.38-1.42ZM8,33c0,4.82,0,9.63,0,14.44,0,.71.16,1,.92,1q10.79,0,21.57,0c.7,0,.89-.2.88-.89,0-4.47,0-8.94,0-13.41,0-3.85,0-7.69,0-11.53,0-.67-.12-1-.86-.9s-1.38,0-2.07,0-1.13-.34-1.09-1.13-.05-1.32,0-2-.23-.93-.95-.93q-8.72,0-17.44,0c-.79,0-1,.23-1,1C8,23.42,8,28.2,8,33Zm27.26-1.81c0-4.15,0-8.31,0-12.47,0-.8-.23-1-1-1a17.58,17.58,0,0,1-1.78,0c-1.14,0-1.27-.14-1.28-1.32a17.61,17.61,0,0,1,0-1.78c.08-.76-.23-.92-.95-.92-5.81,0-11.62,0-17.43,0-1,0-1,.48-1,1.19s-.07,1.27,1,1.26c4.84-.07,9.69,0,14.53,0a2,2,0,0,1,1.66.66q1.5,1.61,3.11,3.11a2,2,0,0,1,.68,1.65q0,10.83,0,21.65c0,1.44-.2,1.27,1.31,1.29a1.2,1.2,0,0,1,.19,0c.77.13.92-.23.92-.94C35.27,39.42,35.28,35.3,35.28,31.17Zm1.52-7.45a5.85,5.85,0,0,0,.75-.23c1.09-.49,2.1-1.2,3.38-.36.47.31,1.74-1.19,1.43-1.7a2.13,2.13,0,0,1,.13-2.52,2.63,2.63,0,0,0,.38-.95,1.76,1.76,0,0,1,1.49-1.57c.77-.16.54-.79.56-1.28s.13-1-.58-1.18a1.76,1.76,0,0,1-1.48-1.58,3,3,0,0,0-.42-1A1.92,1.92,0,0,1,42.34,9c.41-.61-.14-.89-.47-1.22s-.61-.9-1.23-.49a1.89,1.89,0,0,1-2.33-.09,2.91,2.91,0,0,0-1-.42,1.76,1.76,0,0,1-1.59-1.47c-.14-.71-.68-.63-1.17-.6s-1.13-.22-1.29.56a1.86,1.86,0,0,1-1.65,1.53,2.69,2.69,0,0,0-1,.43,1.83,1.83,0,0,1-2.25.08c-.67-.45-.94.17-1.3.5s-.83.64-.42,1.24a1.91,1.91,0,0,1-.09,2.25c-.55.92-.49.9.59,1a3.24,3.24,0,0,0,3-1.22,5.89,5.89,0,0,1,8.87.11,5.9,5.9,0,0,1-.85,8.76,2.71,2.71,0,0,0-1.34,2.88A9.38,9.38,0,0,1,36.8,23.72ZM31.16,12.26c1.14-.29,1.69.48,2.31,1.11a21.34,21.34,0,0,0,1.73,1.7,3.68,3.68,0,0,1,1.62,3.7s.06.08.09.13A4.31,4.31,0,0,0,39,14.64a4.53,4.53,0,0,0-3.52-3.9A4,4,0,0,0,31.16,12.26ZM29,18.91c-.21,1.34-.16,1.38,1.06,1.12Zm3.94-3.86c-.28,1.23-.18,1.33,1,1A4.47,4.47,0,0,0,32.92,15.05Z"/><path class="cls-1" d="M29.35,33a9.68,9.68,0,1,1-9.63-9.68A9.65,9.65,0,0,1,29.35,33Zm-1.51,0a8.16,8.16,0,1,0-8.18,8.15A8.16,8.16,0,0,0,27.84,33Z"/><path class="cls-1" d="M13.52,32.69a2,2,0,0,1,1.16-1.81,1.94,1.94,0,0,1,2.27.29,10.86,10.86,0,0,1,1.13,1.12c.31.37.53.36.87,0,1-1.08,2.1-2.14,3.16-3.19a2.08,2.08,0,0,1,3.14-.23c.9.9.84,2.09-.2,3.15-1.59,1.62-3.19,3.25-4.8,4.86a2.12,2.12,0,0,1-3.41,0c-.87-.85-1.72-1.72-2.59-2.58A2.21,2.21,0,0,1,13.52,32.69Zm10.83-2.31a.58.58,0,0,0-.31-.52c-.36-.18-.6,0-.82.26-1.3,1.31-2.61,2.6-3.88,3.93a1,1,0,0,1-1.64,0c-.48-.54-1-1-1.52-1.53-.27-.27-.58-.54-1-.17s-.13.68.15,1c.84.84,1.69,1.66,2.51,2.52.48.51.86.44,1.32,0,1.56-1.61,3.15-3.2,4.74-4.79A1.36,1.36,0,0,0,24.35,30.38Z"/></svg>