<svg id="Layer_1" data-name="Layer 1" xmlns="http://www.w3.org/2000/svg" width="53" height="53" viewBox="0 0 53 53"><defs><style>.cls-1{fill:#ff8139;}</style></defs><path class="cls-1" d="M43.73,35.48c0-1.13,0-2.26,0-3.4s.38-1.41,1.5-.9C47.1,32,47.1,32,47.46,30A21.26,21.26,0,0,0,14.63,8.82c-.36.24-.7.57-1.19.36s-.59-.94.14-1.44a21.78,21.78,0,0,1,8.61-3.61A22.77,22.77,0,0,1,49,23.08a21.22,21.22,0,0,1-.4,8.69c-.18.71,0,1,.62,1.32,2.43,1.13,2.42,1.16.31,2.91-1.35,1.12-2.7,2.24-4.06,3.34-.38.31-.72.81-1.32.54s-.46-.92-.47-1.44c0-1,0-2,0-3Zm1.46,2.14c.58-.46,1-.73,1.3-1a11.05,11.05,0,0,0,2.2-2L45.9,33.14l-.1,0c-.38-.19-.61-.15-.61.35C45.2,34.75,45.19,36,45.19,37.62Z"/><path class="cls-1" d="M5.9,21.06a20.9,20.9,0,0,0,3.3,17.8,21.19,21.19,0,0,0,28.93,5.42,8.35,8.35,0,0,1,.74-.47.69.69,0,0,1,1,.23.71.71,0,0,1-.17,1,7,7,0,0,1-.62.45C25,54.91,5.54,45.75,3.84,28.89a22.89,22.89,0,0,1,.55-7.83c.16-.65,0-.91-.57-1.14-2.71-1.1-2.26-1.48-.38-3,1.44-1.13,2.83-2.32,4.24-3.48.34-.27.67-.61,1.16-.37s.46.7.45,1.14c0,2.23,0,4.46-.06,6.68,0,1.18-.38,1.38-1.44.9-.54-.23-1.06-.49-1.59-.73A1.07,1.07,0,0,0,5.9,21.06Zm1.87-5.72L4.49,18c-.35.29-.24.45.12.61.86.4,1.71.82,2.56,1.23.4.19.61.12.61-.37C7.77,18.2,7.77,16.9,7.77,15.34Z"/><path class="cls-1" d="M26.29,18.26a7.91,7.91,0,0,1,5.36,1.87c.48.41.77.4,1.12-.11a10.42,10.42,0,0,1,.93-1.08.69.69,0,0,1,1-.13c.38.31.44.78.08,1-1.75,1.27-1.15,2.62-.54,4.29a8,8,0,0,1-3.06,9.1,8.25,8.25,0,1,1-4.94-15Zm.11,15a6.79,6.79,0,0,0,6.28-9.4c-.34-.8-.58-.84-1.14-.18-1.79,2.13-3.63,4.21-5.43,6.32-.59.69-1.11.74-1.66,0-.86-1.23-1.75-2.43-2.64-3.64-.31-.43-.46-.89.05-1.24s.88,0,1.18.39c.6.83,1.23,1.63,1.79,2.49.37.55.61.55,1,0,1.55-1.85,3.1-3.69,4.73-5.47.63-.69.5-1-.18-1.5A6.77,6.77,0,0,0,20,28.5,6.81,6.81,0,0,0,26.4,33.27Z"/><path class="cls-1" d="M26.05,41.69a13.45,13.45,0,0,1-5.81-1.37,1.07,1.07,0,0,0-1.49.29c-1.86,2-1.88,2-2.95-.54L13.55,34.6c-.18-.43-.46-.88,0-1.31s.81-.18,1.22,0c2.27.7,4.54,1.39,6.8,2.11,1.15.37,1.26.8.48,1.7-.19.22-.39.43-.59.65-1.05,1.16-1.05,1.16.38,1.68a13.77,13.77,0,0,0,18-9.57A4.68,4.68,0,0,1,40.1,29a.64.64,0,0,1,.82-.36.6.6,0,0,1,.5.63,4.23,4.23,0,0,1-.11.87A15.36,15.36,0,0,1,26.05,41.69ZM15.33,35l2,4.93,3-3.34Z"/><path class="cls-1" d="M38.34,17.14a.71.71,0,0,1-1.23.56A17.6,17.6,0,0,0,34,15a.68.68,0,0,1-.21-1,.6.6,0,0,1,.82-.33,11.51,11.51,0,0,1,3.66,3.21A.58.58,0,0,1,38.34,17.14Z"/><path class="cls-1" d="M12.77,27c.11.79.21,1.58.33,2.37.07.53.11,1.1-.57,1.2s-.82-.46-.93-1a15.6,15.6,0,0,1-.27-3.8c0-.54.21-1,.79-.94s.71.44.7.93v1.2Z"/><path class="cls-1" d="M22.76,12.74a.77.77,0,0,1-.58.71,14.49,14.49,0,0,0-3.41,1.7c-.4.26-.85.35-1.16-.09s-.07-.88.37-1.18a14.79,14.79,0,0,1,3.6-1.8C22.27,11.85,22.78,12.17,22.76,12.74Z"/><path class="cls-1" d="M15.79,17.73a3.3,3.3,0,0,1-.25.5,15.36,15.36,0,0,0-1.77,3.13c-.19.48-.46.9-1,.65s-.55-.67-.34-1.19a15.07,15.07,0,0,1,2.06-3.59.73.73,0,0,1,1.35.5Z"/><path class="cls-1" d="M41.65,24.79c0,.51-.14.9-.67.95s-.77-.35-.82-.82a14.27,14.27,0,0,0-.91-3.58c-.18-.48-.19-1,.41-1.17s.81.18,1,.62A15.34,15.34,0,0,1,41.65,24.79Z"/><path class="cls-1" d="M27.37,11.27a14.15,14.15,0,0,1,2.89.46c.56.14,1.16.3.95,1s-.71.58-1.26.43a14.62,14.62,0,0,0-3.23-.45c-.55,0-1.19,0-1.15-.78s.72-.66,1.25-.68Z"/></svg>