<svg id="Layer_1" data-name="Layer 1" xmlns="http://www.w3.org/2000/svg" width="53" height="53" viewBox="0 0 53 53"><defs><style>.cls-1{fill:#1358dd;}</style></defs><path class="cls-1" d="M8.65,44.71c-1,0-1.81,0-2.64,0-.6,0-.87-.26-.84-.85,0-.2,0-.4,0-.6V4c0-1.45,0-1.45,1.42-1.45,7.49,0,15,0,22.45,0a2.17,2.17,0,0,1,1.75.72c.94,1,1.8,2.28,3,2.77s2.69.13,4.06.14h2.31c1.34,0,1.36,0,1.37,1.33,0,1.57,0,3.14,0,4.71a.65.65,0,0,0,0,.19l.24-.14a9.86,9.86,0,0,1,1,1.4c.25.53.53.71,1,.33.66-.57,1.18-.42,1.69.2a5.69,5.69,0,0,0,.86.84.92.92,0,0,1,.19,1.46c-.5.63-.35,1,.48,1.11s.9.46.86,1.09a7,7,0,0,0,0,1.3c.07.75-.12,1.22-1,1.31-.65.07-.89.46-.41,1s.38,1.06-.17,1.53a5.76,5.76,0,0,0-.84.87,1,1,0,0,1-1.61.22c-.57-.46-1-.21-1,.45s-.48,1.05-1.3,1c0,1.18,0,2.28,0,3.37,0,.24.38.58.65.68,1.56.57,3.17,1,4.72,1.64a1.38,1.38,0,0,1,.75,1,27.42,27.42,0,0,1-1.52,10,12.16,12.16,0,0,1-7.36,7.31,3,3,0,0,1-1.79,0,7.86,7.86,0,0,1-2.41-1.19,4.55,4.55,0,0,0-3-.83c-7.18,0-14.36,0-21.54,0-1.39,0-1.4,0-1.4-1.39ZM6.31,43.56H29.7a22.21,22.21,0,0,1-.83-2.82c-.16-1-.58-1.26-1.57-1.25-5.51,0-11,0-16.54,0a4.06,4.06,0,0,1-1-.06c-.18-.05-.45-.32-.43-.44a.83.83,0,0,1,.45-.55,2.62,2.62,0,0,1,.89,0H28.36l-.24-2.19H10.63a2.31,2.31,0,0,1-.79,0,.91.91,0,0,1-.5-.5c0-.12.2-.39.37-.5a3,3,0,0,1,.73-.18V33.9c0-2.94,0-5.88,0-8.82,0-.77.23-1.12,1-1.08A20.85,20.85,0,0,0,14,24c.88-.06,1.17.29,1.16,1.16,0,2.94,0,5.88,0,8.82v1.08h1.18v-1c0-3.77,0-7.55,0-11.32,0-.83.28-1.16,1.1-1.12a21.53,21.53,0,0,0,2.41,0c.91-.07,1.24.27,1.22,1.2C21,25.58,21,28.28,21,31v4.06h1.15V33.94c0-2.31,0-4.61,0-6.92,0-.75.23-1.11,1-1.06s1.8,0,2.7,0,1,.29,1,1c0,2.1,0,4.21,0,6.31v1.84l1.2-.06V34c0-4.21,0-8.42,0-12.63,0-.88.28-1.22,1.16-1.15.69.06,1.4,0,2.1,0,1.42,0,1.42,0,1.42,1.45,0,3,0,5.94,0,9,1.34-.45,2.57-.85,3.79-1.28.15,0,.37-.27.36-.39-.14-1.8.74-3.86-1.3-5.19a.83.83,0,0,1-.19-1.36c.48-.61.44-1-.43-1.14-.72-.08-.95-.49-.89-1.17a5.06,5.06,0,0,0,0-1.1c-.09-.81.08-1.38,1-1.46.58-.05.81-.42.41-.88-.67-.78-.39-1.37.3-1.84,1.34-.92,1.19-2.21,1-3.6l-1,0c-1.77,0-3.54,0-5.31,0-.94,0-1.27-.31-1.18-1.22.06-.63,0-1.27,0-1.91V3.72h-23ZM29,33.11c.26,2.27.37,4.48.78,6.63.84,4.3,3,7.71,7.22,9.42a2.65,2.65,0,0,0,1.78,0,10.84,10.84,0,0,0,6-5.73,23.32,23.32,0,0,0,1.76-9.87c0-.24-.36-.6-.62-.69q-3.74-1.3-7.49-2.52a1.7,1.7,0,0,0-1,0C34.68,31.18,31.94,32.12,29,33.11Zm12.65-7.94A1.74,1.74,0,0,1,44.56,24l1-1c-.9-1.44-.57-2.21,1.15-2.93.07-1.12.07-1.11-.87-1.56a1.54,1.54,0,0,1-.47-.48,1.56,1.56,0,0,1,.06-2l-.83-1.16c-1.56.9-2.29.6-3.06-1.13H40.26c-.44,1.22-1.43,2.06-2.09,1.62-1-.66-1.33,0-1.8.59.57,1.06.47,2.43-.3,2.58-1.18.22-1,.9-.88,1.66,1.7.6,2,1.34,1.27,2.78l.88,1.14c1.51-.91,2.39-.54,2.94,1.11Zm-31.8,22H32A10.69,10.69,0,0,1,31,45.71a1.76,1.76,0,0,0-1.92-1c-6,0-12,0-18,0H9.83Zm10-12.11V22.87H17.48V35.06Zm9.38-3.21a14.24,14.24,0,0,1,1.44-.45c.82-.14,1-.59,1-1.4-.06-1.83,0-3.67,0-5.51V21.38H29.18ZM14,35.06V25.22H11.6v9.84Zm9.39-8V35h2.3V27.1ZM34.82,7.32c1,.94,1.68,1.7,2.46,2.41a1.89,1.89,0,0,1,.7,1.66,13.26,13.26,0,0,0,0,2.09c0,.24.27.46.42.69.21-.17.57-.32.59-.5a1.14,1.14,0,0,1,1.28-1.19V7.32Zm-4.39,2.74H35.6L30.43,4.92Zm9.88,19.7V26.49l-.27.14c-.31-.4-.61-.82-.93-1.22-.18-.23-.38-.45-.58-.67-.19.27-.52.52-.53.8a23.22,23.22,0,0,0,0,2.89,1,1,0,0,0,.48.72A16.53,16.53,0,0,0,40.31,29.76Z"/><path class="cls-1" d="M17.14,11.11c-2.23,0-4.46,0-6.69,0-.4,0-.79-.37-1.18-.57.38-.18.75-.51,1.12-.52q6.75,0,13.49,0c.36,0,.71.37,1.06.57-.36.18-.73.51-1.1.52C21.61,11.13,19.37,11.11,17.14,11.11Z"/><path class="cls-1" d="M17.16,14.15c-2.27,0-4.53,0-6.8,0-.35,0-.7-.32-1-.5.35-.2.7-.58,1.06-.59,4.53,0,9.06,0,13.59,0,.31,0,.8.1.88.29.31.72-.22.83-.78.83Z"/><path class="cls-1" d="M14.36,6.94c1.37,0,2.74,0,4.1,0,.29,0,.56.37.84.56-.28.17-.56.48-.84.48-2.76,0-5.53,0-8.29,0-.29,0-.57-.31-.86-.47.29-.2.56-.56.86-.57C11.56,6.91,13,6.94,14.36,6.94Z"/><path class="cls-1" d="M43,39.87a5.13,5.13,0,1,1-5.1-5.19A5.13,5.13,0,0,1,43,39.87Zm-5.13-4.06a4,4,0,0,0,0,8,4,4,0,1,0,0-8Z"/><path class="cls-1" d="M43.81,19.49A2.89,2.89,0,1,1,38,19.4a2.89,2.89,0,0,1,5.78.09Zm-2.92-1.85a1.82,1.82,0,0,0-1.76,1.81,1.8,1.8,0,1,0,3.59-.07A1.82,1.82,0,0,0,40.89,17.64Z"/><path class="cls-1" d="M37.28,40.2c.69-.66,1.26-1.28,1.9-1.8.21-.17.61-.11.92-.15,0,.29,0,.67-.14.86a23.46,23.46,0,0,1-2.09,2.14,1,1,0,0,1-.92.12,4.8,4.8,0,0,1-1.24-1.14c-.15-.18,0-.57-.05-.86a2.19,2.19,0,0,1,.79.12A5,5,0,0,1,37.28,40.2Z"/></svg>