<svg id="Layer_1" data-name="Layer 1" xmlns="http://www.w3.org/2000/svg" width="53" height="53" viewBox="0 0 53 53"><defs><style>.cls-1{fill:#3cc;}</style></defs><path class="cls-1" d="M23.46,28.05a1.72,1.72,0,0,1-1.26-.86c-.53-.62-1.06-.89-1.78-.32a1.2,1.2,0,0,1-.56.23c-1,.15-1.19.73-1.14,1.64.08,1.42-.15,1.59-1.53,1.59-1,0-2,0-3,0-1.19,0-1.35-.18-1.39-1.33,0-.49.26-1.18-.15-1.45a8.12,8.12,0,0,0-2.4-1c-.43-.11-.68.48-1,.77-1,1-1.22,1-2.22,0L4.79,25c-.41-.41-.66-1-.14-1.31,1.59-1,1.15-2.19.51-3.5-.21-.43-.4-.64-.88-.59s-.75,0-1.12,0a.92.92,0,0,1-1-1.07c0-1.25,0-2.51,0-3.76,0-.58.24-1.15.83-1,1.77.39,2.3-.69,2.79-2a1,1,0,0,0-.23-1.22C4.05,9.05,4.07,9,5.5,7.6L7.23,5.88c.83-.83,1.09-.82,1.92,0,.36.34.66,1,1.13.92a7.94,7.94,0,0,0,2.41-1c.41-.25.15-.88.16-1.34C12.88,3.12,13,3,14.32,3c1,0,2.1,0,3.15,0s1.29.37,1.29,1.27c0,.52-.28,1.23.16,1.54a8.53,8.53,0,0,0,2.31,1c.44.13.66-.4.93-.67C23.34,5,23.42,5,24.58,6.12c.7.7,1.38,1.4,2.09,2.08a1,1,0,0,1,0,1.72c-.28.25-.52.53-.8.78a.57.57,0,0,0-.13.81A1.35,1.35,0,0,1,26,12a1.92,1.92,0,0,0,2.52,1.77c.61-.12.95.33,1,.92q0,2,0,4c0,.59-.34,1.11-.92.95-2.07-.55-2.23,1.11-2.82,2.3-.18.36,0,.57.23.79s.63.62.93.94A.79.79,0,0,1,27,24.77c-1,1.05-2,2.07-3.08,3.09A1.26,1.26,0,0,1,23.46,28.05ZM25.29,8.84a4.64,4.64,0,0,1-1-.71c-.62-.81-1.17-1-1.81,0a1.2,1.2,0,0,1-1.91.26,5.15,5.15,0,0,0-2.13-.9C17.33,7.28,17,6.68,17.1,5.63c0-.32.16-.87-.16-.93a5.62,5.62,0,0,0-2.2,0c-.5.11-.26.78-.23,1.17a1.26,1.26,0,0,1-1.19,1.55,5.34,5.34,0,0,0-2.15.87A1.42,1.42,0,0,1,8.92,8c-.2-.25-.52-.73-.75-.57a6.13,6.13,0,0,0-1.6,1.53c-.33.48.35.72.62,1a1.32,1.32,0,0,1,.28,2,5.89,5.89,0,0,0-1,2.33A1.21,1.21,0,0,1,5,15.35c-.39,0-1-.21-1.15.11a3.93,3.93,0,0,0-.09,2.18c.07.6.68.33,1,.3a1.42,1.42,0,0,1,1.8,1.39,4.45,4.45,0,0,0,.82,2,1.43,1.43,0,0,1-.34,2.25c-.24.2-.73.49-.56.74a5.83,5.83,0,0,0,1.54,1.59c.46.31.73-.35,1-.64a1.32,1.32,0,0,1,2-.25,5.89,5.89,0,0,0,2.33,1,1.23,1.23,0,0,1,1.13,1.5c0,.39-.21,1,.12,1.14a3.53,3.53,0,0,0,2.18.08c.53-.1.31-.69.28-1a1.4,1.4,0,0,1,1.32-1.75,5.18,5.18,0,0,0,2-.8,1.46,1.46,0,0,1,2.32.34c.19.24.47.73.74.54A5.52,5.52,0,0,0,25,24.37c.29-.48-.42-.75-.73-1.05A1.19,1.19,0,0,1,24,21.55a6.87,6.87,0,0,0,.89-1.92c.51-1.6.52-1.6,2.17-1.67.23,0,.57.12.64-.14a4.36,4.36,0,0,0,0-2.21c-.13-.56-.77-.28-1.15-.25A1.3,1.3,0,0,1,25,14.1,5,5,0,0,0,24.13,12a1.35,1.35,0,0,1,.33-2.15A2.63,2.63,0,0,0,25.29,8.84Z"/><path class="cls-1" d="M38.11,50H29.39c-3.44,0-5.15-3-3.44-6Q30.3,36.51,34.67,29c1.69-2.93,5.12-2.92,6.82,0q4.38,7.54,8.72,15.1c1.72,3,0,5.94-3.47,6ZM38,48.4h8.72c2.24,0,3.17-1.61,2.05-3.55q-4.32-7.5-8.66-15c-1.13-1.95-3-1.93-4.09,0q-4.32,7.45-8.61,14.92c-1.16,2-.24,3.58,2.07,3.59Z"/><path class="cls-1" d="M20.46,48.41A16.52,16.52,0,0,1,6.54,39.77a6.34,6.34,0,0,1-.49-.88c-.33-.82-.62-1.42-1.68-.71-.64.43-1.29-.13-1.15-.94.39-2.29.8-4.59,1.25-6.87.17-.86.66-1.07,1.4-.65q2.37,1.37,4.7,2.81c.75.46.79,1.16,0,1.58-1.12.6-1,1.28-.61,2.27A17.68,17.68,0,0,0,21,46.59l.68.22a.78.78,0,0,1,.59.93.79.79,0,0,1-.78.67C21.13,48.44,20.79,48.41,20.46,48.41ZM8.85,33.4,6.42,31.93c-.34-.21-.56-.22-.63.25-.2,1.19-.42,2.38-.63,3.59,1.1-.12,1.2-.07,1.64.93a19.59,19.59,0,0,0,2.76,4.58,13.62,13.62,0,0,0,5.18,4,13,13,0,0,0-1.09-1A19.52,19.52,0,0,1,8,35.77C7.69,34.81,7.56,34,8.85,33.4Z"/><path class="cls-1" d="M32.27,10.63c6.25.19,10.89,3.11,14.26,8.21.43.64.68,1.05,1.49.39s1.43-.14,1.37.79q-.21,3.5-.52,7c-.08.85-.54,1.09-1.35.73-1.64-.73-3.26-1.48-4.88-2.25-.87-.42-1-1-.19-1.62s.91-1.31.37-2.26a17.78,17.78,0,0,0-12.33-9.07c-.54-.11-1.13-.16-1.14-.88s.6-.81,1.14-.88S31.7,10.67,32.27,10.63Zm4.78,2.53a20.37,20.37,0,0,1,7.64,8.6c.45.95.94,1.88-.51,2.62,1,.45,1.78.81,2.57,1.19.39.18.62.19.65-.35.06-1.17.15-2.35.23-3.53-1.15.15-1.19.14-1.74-.81a20.64,20.64,0,0,0-2.67-3.69A13.68,13.68,0,0,0,37.05,13.16Z"/><path class="cls-1" d="M15.84,8.6a8.05,8.05,0,1,1-8.1,8A8,8,0,0,1,15.84,8.6Zm-.09,14.47a6.42,6.42,0,1,0-6.37-6.49A6.41,6.41,0,0,0,15.75,23.07Z"/><path class="cls-1" d="M38.11,33c2.35,0,2.36,0,2.16,2.36-.16,2-.39,3.9-.51,5.85-.07,1.23-.94,1.18-1.72,1.18s-1.58,0-1.65-1.15c-.13-2.19-.39-4.37-.55-6.56-.12-1.61,0-1.68,1.56-1.68ZM38,40.28h.21c.15-1.66.29-3.31.45-5,0-.4,0-.69-.53-.7s-.66.24-.6.73c.1.8.14,1.61.22,2.41S37.9,39.44,38,40.28Z"/><path class="cls-1" d="M38.07,46.21a1.87,1.87,0,1,1,1.87-1.84A1.85,1.85,0,0,1,38.07,46.21Z"/><path class="cls-1" d="M15.11,15.12c-.06.44.12.71.67.7A2,2,0,0,1,18,17.33a2.57,2.57,0,0,1-1.08,3.08.89.89,0,0,0-.39.65.7.7,0,0,1-.7.62.68.68,0,0,1-.79-.5,1.6,1.6,0,0,0-.84-1A1.69,1.69,0,0,1,13.51,19,.85.85,0,0,1,14,17.87a.73.73,0,0,1,1,.54c.14.62.54.63,1,.56s.43-.52.44-.88c0-.57-.38-.64-.82-.63a2,2,0,0,1-2.12-1.53,2.48,2.48,0,0,1,1-3,1.21,1.21,0,0,0,.52-.79.74.74,0,0,1,.76-.56c.38,0,.72.17.74.55s.36.67.71.89a1.86,1.86,0,0,1,.82,1.23c.11.54,0,1-.55,1.15a.72.72,0,0,1-1-.6c-.13-.56-.52-.54-.94-.52S15.12,14.72,15.11,15.12Z"/></svg>