<svg id="Layer_1" data-name="Layer 1" xmlns="http://www.w3.org/2000/svg" width="53" height="53" viewBox="0 0 53 53"><defs><style>.cls-1{fill:#f9536e;}</style></defs><path class="cls-1" d="M26.51,6.79H41.59a4.26,4.26,0,0,1,4.62,4.59q0,11,0,22a4.22,4.22,0,0,1-4.51,4.53q-4.43,0-8.85,0a.92.92,0,0,0-1,.61C31,40.39,30,42.21,29.12,44c-.11.21-.21.42-.32.62a2.66,2.66,0,0,1-2.31,1.55,2.57,2.57,0,0,1-2.29-1.57c-.75-1.43-1.45-2.88-2.18-4.32-.39-.78-.63-1.78-1.26-2.24s-1.69-.13-2.55-.14c-2.29,0-4.57,0-6.85,0a4.25,4.25,0,0,1-4.57-4.56q0-11,0-22a4.27,4.27,0,0,1,4.56-4.58Zm0,2.32h-15c-1.69,0-2.39.7-2.39,2.37V33.26c0,1.69.68,2.36,2.39,2.36,3.21,0,6.41,0,9.62,0a1.66,1.66,0,0,1,1.69,1c1.07,2.21,2.18,4.4,3.29,6.6.09.19.14.5.42.49s.31-.3.41-.5c1.11-2.2,2.22-4.39,3.29-6.6a1.64,1.64,0,0,1,1.69-1c3.21,0,6.42,0,9.62,0,1.7,0,2.38-.68,2.38-2.37V11.47c0-1.67-.71-2.36-2.4-2.36Z"/><path class="cls-1" d="M22.86,18c0-.84,0-1.69,0-2.54a3.63,3.63,0,1,1,7.26,0q.06,2.58,0,5.16a3.63,3.63,0,1,1-7.26,0C22.84,19.77,22.86,18.89,22.86,18Zm5,.07c0-.85,0-1.69,0-2.54a1.33,1.33,0,1,0-2.64,0c0,1.67,0,3.33,0,5A1.35,1.35,0,0,0,26.49,22a1.36,1.36,0,0,0,1.33-1.48C27.84,19.73,27.82,18.91,27.82,18.09Z"/><path class="cls-1" d="M26.51,34.22a3.62,3.62,0,0,1-3.64-3.59,3.63,3.63,0,1,1,7.26,0A3.62,3.62,0,0,1,26.51,34.22Zm1.3-3.61a1.31,1.31,0,1,0-1.34,1.3A1.33,1.33,0,0,0,27.81,30.61Z"/></svg>