<svg id="Layer_1" data-name="Layer 1" xmlns="http://www.w3.org/2000/svg" width="53" height="53" viewBox="0 0 53 53"><defs><style>.cls-1{fill:#3cc;}</style></defs><path class="cls-1" d="M41.93,22.45c-.64-.3-1.64-.11-1.45-1.11s1.05-.59,1.63-.49c2.38.41,2-.08,2.42,2.62.09.57.27,1.21-.51,1.39s-.88-.5-1.06-1.28c-.93,1.05-1.77,2-2.59,3-.18.21.05.42.13.6a10.54,10.54,0,0,1-.23,9.71.66.66,0,0,0,.16,1c.47.41.9.87,1.36,1.3.18.16.32.39.63.3a2,2,0,0,1,2,.77c1.59,1.56,3.21,3.1,4.8,4.66,1,1,1,1.86,0,2.93-.54.57-1.08,1.14-1.65,1.68a1.64,1.64,0,0,1-2.44,0c-1.8-1.71-3.57-3.45-5.35-5.18a1.35,1.35,0,0,1-.52-1.07c.19-1.49-1.21-1.83-1.88-2.69-.2-.25-.46.06-.66.18-4.91,2.93-10,2.22-14-2-.41-.43-.61-.35-1,0-.78.78-1.59,1.52-2.38,2.29-.38.36-.79.58-1.22.12s-.21-.86.17-1.22c.86-.83,1.71-1.67,2.59-2.48a.82.82,0,0,0,.24-1.12,10.63,10.63,0,0,1,9-15.22,10.1,10.1,0,0,1,8.66,3.55c.52.58.75.52,1.18,0C40.58,23.9,41.24,23.22,41.93,22.45ZM24.47,34.06,28.4,30.3c.74-.7,1.07-.67,1.68.11s1.25,1.57,1.83,2.4c.31.44.49.4.81,0,1.2-1.37,2.41-2.74,3.63-4.09a.65.65,0,0,0,.1-1,6.92,6.92,0,0,0-8.75-2.09A6.73,6.73,0,0,0,24.47,34.06Zm13-4.08c-.42.11-.56.42-.76.64C35.5,32,34.3,33.35,33.08,34.71c-.66.74-1.06.73-1.66,0S30.14,33,29.54,32.19c-.3-.42-.5-.42-.86-.06-1,1-2,2-3.07,2.93-.43.39-.41.64-.06,1.07A6.87,6.87,0,0,0,37.48,30Zm5.48,11c-.27,0-.37.18-.49.31-.42.42-.81.87-1.26,1.27s-.43.65,0,1.05c1.19,1.11,2.35,2.26,3.52,3.39,1.68,1.63,1.66,1.62,3.3-.11.4-.43.39-.66,0-1.05-1.55-1.47-3.07-3-4.6-4.45C43.27,41.19,43.1,41.05,43,40.93ZM22.49,32a8.38,8.38,0,0,1,14.83-5.53c.17.19.23.81.74.37s.08-.6-.13-.86A9.16,9.16,0,0,0,22.3,35c.09.24,0,.75.51.58s.36-.52.21-.88A7.39,7.39,0,0,1,22.49,32Zm16.74-.05a8.38,8.38,0,0,1-14.74,5.34c-.18-.2-.27-.76-.76-.35s0,.61.16.84a9.17,9.17,0,0,0,15.59-9.08c-.08-.21,0-.69-.45-.55s-.45.44-.29.85A7.6,7.6,0,0,1,39.23,31.9ZM41,40.54a2.22,2.22,0,0,0-.26-.31L39.4,38.92c-.23-.23-.41-.21-.61,0s-.37.36-.11.62L40.15,41a.25.25,0,0,0,.4,0Z"/><path class="cls-1" d="M18,11.55a8.53,8.53,0,1,1,8.52,8.52A8.52,8.52,0,0,1,18,11.55Zm15.53,0a7,7,0,1,0-7.1,7A7,7,0,0,0,33.5,11.6Z"/><path class="cls-1" d="M3,25.64a8.54,8.54,0,1,1,8.53,8.53A8.56,8.56,0,0,1,3,25.64Zm1.53,0a7,7,0,1,0,7-7A7,7,0,0,0,4.53,25.64Z"/><path class="cls-1" d="M6.47,14.6c-.58,0-1.09-.13-1.07-.77s.61-.76,1.18-.75,1,.13,1,.73S7,14.63,6.47,14.6Z"/><path class="cls-1" d="M15.35,10.06c0,.52-.08,1-.72,1.08s-.81-.45-.8-1,0-1.15.76-1.15S15.37,9.48,15.35,10.06Z"/><path class="cls-1" d="M10.44,14.6c-.57,0-1.1-.07-1.11-.74s.55-.78,1.12-.78,1.06.13,1,.78S11,14.64,10.44,14.6Z"/><path class="cls-1" d="M15.35,6.13c0,.55-.07,1.07-.73,1.09s-.79-.55-.79-1.12.12-1.06.77-1S15.38,5.57,15.35,6.13Z"/><path class="cls-1" d="M16.81,7.34c.35,0,.83.13.81.76s-.59.76-1.14.77-1.06-.17-1-.82S16.11,7.33,16.81,7.34Z"/><path class="cls-1" d="M9.2,15.75c0,.55,0,1.14-.78,1.12s-.74-.55-.74-1.08.09-1.06.75-1.07S9.21,15.2,9.2,15.75Z"/><path class="cls-1" d="M12.64,7.34c.53,0,1.06.06,1.06.75s-.51.78-1,.77-1.13-.06-1.1-.8S12.13,7.35,12.64,7.34Z"/><path class="cls-1" d="M9.2,11.67c0,.72,0,1.26-.71,1.28s-.81-.46-.81-1,0-1.12.77-1.13S9.19,11.34,9.2,11.67Z"/><path class="cls-1" d="M29.73,14.06c0,.69-.71,1.37-1.72,1.76-.42.16-.8.25-.81.84a.64.64,0,0,1-.68.54c-.39,0-.73-.22-.73-.59,0-.54-.35-.65-.74-.8a2.85,2.85,0,0,1-1.68-1.68c-.18-.49-.2-1,.37-1.19s.8.1,1,.55a2,2,0,0,0,2.8.88.91.91,0,0,0,.63-.75,1,1,0,0,0-.51-.94,6.27,6.27,0,0,0-1.79-.54,2.76,2.76,0,0,1-2.39-2.23A2.51,2.51,0,0,1,25,7.31c.39-.19.79-.27.8-.87,0-.36.34-.57.75-.56s.67.23.66.55c0,.59.4.68.8.86a2.87,2.87,0,0,1,1.42,1.45.74.74,0,0,1-.27,1.06c-.42.23-.76.07-1-.32-.71-1-1.47-1.22-2.31-.86a1.07,1.07,0,0,0-.76,1,.9.9,0,0,0,.72.89c.65.2,1.34.33,2,.55A2.77,2.77,0,0,1,29.73,14.06Z"/><path class="cls-1" d="M8.31,27.88c0-.45.11-.75.5-.86a.75.75,0,0,1,.93.44,2.07,2.07,0,0,0,2.73,1.06c.4-.15.76-.37.78-.85a1,1,0,0,0-.65-1,5.81,5.81,0,0,0-1.53-.43c-1.57-.35-2.45-1.2-2.52-2.4a2.44,2.44,0,0,1,1.59-2.52c.34-.17.69-.26.67-.77a.65.65,0,0,1,.7-.63.65.65,0,0,1,.73.59c0,.52.36.66.74.82a2.83,2.83,0,0,1,1.45,1.42.75.75,0,0,1-.28,1.13c-.46.25-.76,0-1-.36-.74-1-1.43-1.23-2.31-.84a1.05,1.05,0,0,0-.74,1,.9.9,0,0,0,.72.88c.5.17,1,.26,1.55.4a3.08,3.08,0,0,1,2.24,1.69,2.34,2.34,0,0,1-1.45,3.2c-.44.18-.88.26-.91.88,0,.34-.34.52-.7.51s-.7-.21-.7-.61-.34-.6-.69-.74A2.76,2.76,0,0,1,8.31,27.88Z"/></svg>