<svg id="Layer_1" data-name="Layer 1" xmlns="http://www.w3.org/2000/svg" width="53" height="53" viewBox="0 0 53 53"><defs><style>.cls-1{fill:#ff8139;}</style></defs><path class="cls-1" d="M34.51,12.33c-4,0-8.07,0-12.1,0a1,1,0,0,0-1.13.76,6.22,6.22,0,0,1-11.6,0c-.24-.58-.5-.82-1.13-.77s-1.37,0-2.06,0c-1.31,0-2-.59-2-1.6S5.2,9.18,6.54,9.18h.09c1.67.19,2.85,0,3.74-1.9,1-2.15,3.24-3,5.65-2.79A5.86,5.86,0,0,1,21.17,8.2a1.39,1.39,0,0,0,1.58,1c7.81,0,15.61,0,23.42,0,.26,0,.52,0,.78,0a1.57,1.57,0,0,1,1.59,1.55,1.55,1.55,0,0,1-1.63,1.59c-1.84,0-3.68,0-5.51,0ZM15.44,7.61a3.15,3.15,0,1,0,3.18,3.08A3.15,3.15,0,0,0,15.44,7.61Z"/><path class="cls-1" d="M18.49,24.92c4,0,8.07,0,12.1,0a1,1,0,0,0,1.13-.77,6.22,6.22,0,0,1,11.6,0c.24.58.49.82,1.12.77s1.51,0,2.27,0c1.14,0,1.85.64,1.83,1.6s-.72,1.54-1.88,1.56a2.8,2.8,0,0,1-.29,0c-1.66-.19-2.85,0-3.74,1.89-1,2.16-3.23,3-5.65,2.79a5.86,5.86,0,0,1-5.15-3.71,1.39,1.39,0,0,0-1.58-1c-7.81,0-15.61,0-23.42,0-.26,0-.52,0-.78,0a1.57,1.57,0,0,1-1.59-1.55,1.55,1.55,0,0,1,1.63-1.59c1.77,0,3.54,0,5.31,0Zm19,4.72a3.14,3.14,0,1,0-3.13-3.13A3.16,3.16,0,0,0,37.51,29.64Z"/><path class="cls-1" d="M34.47,43.82c-4,0-8.07,0-12.1,0a1,1,0,0,0-1.07.71,6.23,6.23,0,0,1-11.64,0,1,1,0,0,0-1.15-.73c-.78,0-1.57,0-2.36,0a1.58,1.58,0,1,1,0-3.15c.85,0,1.7,0,2.55,0a.77.77,0,0,0,.86-.58A6,6,0,0,1,15.47,36a6,6,0,0,1,5.88,4.12c.26.67.68.58,1.15.58H46c.23,0,.46,0,.69,0,1.15,0,1.85.63,1.84,1.59s-.71,1.56-1.87,1.56ZM18.62,42.26a3.14,3.14,0,1,0-3.13,3.13A3.15,3.15,0,0,0,18.62,42.26Z"/></svg>