<svg id="Layer_1" data-name="Layer 1" xmlns="http://www.w3.org/2000/svg" width="53" height="53" viewBox="0 0 53 53"><defs><style>.cls-1{fill:#1358dd;}</style></defs><path class="cls-1" d="M7.3,26q0-7.72,0-15.46c0-2.33.93-3.25,3.29-3.25H34.81a3.11,3.11,0,0,1,2.57.86c.42.48.56.16.75-.17C39,6.49,39.82,5,40.67,3.56s1.62-1.62,3-.84l.56.33c1.62.94,1.82,1.66.9,3.24-2,3.44-3.89,6.9-5.95,10.28A7.76,7.76,0,0,0,38,20.94c.08,4.1,0,8.21,0,12.32,0,.72.09,1.1.94.83a1,1,0,0,1,1.25.59c.21.38.44.75.65,1.12,1.24,2.2,1.42,1.86-.24,3.66a2.57,2.57,0,0,0,0,2.78C42.39,44,42,43.84,41,45.72c-.1.19-.22.37-.32.56-.86,1.48-.86,1.48-2.56,1.11a2.42,2.42,0,0,0-2.9,1.67c-.55,1.66-.55,1.66-2.24,1.66h-.76c-1.95,0-2,.35-2.71-1.9a2.47,2.47,0,0,0-2.64-1.48c-1.91.39-2,.42-2.84-1.29a2.06,2.06,0,0,0-2.19-1.25c-3.78.07-7.56,0-11.35,0-2.19,0-3.15-1-3.15-3.17Q7.3,33.83,7.3,26Zm29.22,7.94V21.42c-.82,1-1.07,2.14-2.1,2.77s-1.87,1.34-2.82,2c-.75.52-1.44.4-1.4-.25.11-1.89-.14-3.87.81-5.6,1.7-3.1,3.52-6.12,5.27-9.19.82-1.44.26-2.38-1.39-2.38H10.56c-1.48,0-1.77.28-1.77,1.76v31c0,1.48.29,1.78,1.75,1.78H21.9a2.41,2.41,0,0,0,2.56-2.56,2.07,2.07,0,0,0-.84-1.86,1.52,1.52,0,0,1-.23-2.35,14.84,14.84,0,0,0,1-1.77A1.24,1.24,0,0,1,26,34.12c.32.09.64.15.95.21A2.51,2.51,0,0,0,29.4,33c.68-2.32.6-2,3-2.05a3.52,3.52,0,0,0,.65,0,1.61,1.61,0,0,1,2.06,1.49C35.29,33.16,35.55,33.82,36.52,33.93Zm.7,11.77a5.91,5.91,0,0,1,.77.16c.69.22,1.22.19,1.57-.61s.89-1.23,0-2a3.61,3.61,0,0,1,0-4.8c.52-.53.63-.95.18-1.57s-.56-1.41-1.72-1.08a3.52,3.52,0,0,1-4.19-2.46c-.25-.92-.8-.91-1.52-.91s-1.27,0-1.53.91a3.49,3.49,0,0,1-4.18,2.46c-1.16-.33-1.26.5-1.71,1.08s-.26,1.12.24,1.64a3.61,3.61,0,0,1,0,4.71c-.78.75-.41,1.25-.05,1.94a1.21,1.21,0,0,0,1.61.77,3.7,3.7,0,0,1,4.12,2.33c.12.35.07.81.54,1A1.92,1.92,0,0,0,34,48,5.11,5.11,0,0,1,37.22,45.7ZM34.09,22c.47,0,.52-.4.66-.66C37.15,17.21,39.5,13.05,42,9c.63-1.07-.25-1.07-.71-1.43s-.94-.46-1.37.31c-2.27,4-4.62,8-6.92,12.06-.2.36-.73.79-.45,1.1A6.2,6.2,0,0,0,34.09,22ZM42.87,6.76c.27,0,1.28-1.42,1.3-1.76s-1.29-1.2-1.66-1.2-1.35,1.47-1.25,1.76C41.53,6.32,42.4,6.31,42.87,6.76ZM31.75,24.28c.54-.46,1.17-.58,1.2-1.07,0-.33-.54-.53-1-.6Z"/><path class="cls-1" d="M14.56,41.67A4.17,4.17,0,0,1,10.64,39a4.23,4.23,0,0,1,1-4.57,4,4,0,0,1,4.69-.78c.73.38,1.13.3,1.56-.34.29-.45.73-.81,1.25-.37s.24.92-.14,1.3a1.63,1.63,0,0,0-.39,2A4.16,4.16,0,0,1,14.56,41.67Zm2.53-5.1-2,2.42c-.36.43-.8.77-1.26.25a16.37,16.37,0,0,1-1.53-2.08.64.64,0,0,1,.25-.94.68.68,0,0,1,1,.19c.28.32.52.68.8,1a5.66,5.66,0,0,0,1.24-1.35c.22-.27.68-.53.54-.87s-.69-.47-1.12-.51a3.22,3.22,0,0,0-.76,0,2.76,2.76,0,1,0,1.29,5.35A2.61,2.61,0,0,0,17.09,36.57Z"/><path class="cls-1" d="M14.63,20.29a4.23,4.23,0,0,1-3-7.31,4.06,4.06,0,0,1,4.7-.74c.68.36,1.05.34,1.47-.31.3-.46.75-.91,1.32-.39s.18,1-.19,1.31a1.61,1.61,0,0,0-.35,2A4.18,4.18,0,0,1,14.63,20.29Zm2.51-5a3.26,3.26,0,0,0-1,1.07c-2,2.52-1.83,2.27-3.67-.27-.3-.42-.44-.88.06-1.22s.8-.06,1.11.32.37.68.8.88c.49-.58.95-1.18,1.45-1.73s.17-.65-.27-.83a2.8,2.8,0,0,0-3.27,1,2.74,2.74,0,0,0,.24,3.48,2.77,2.77,0,0,0,3.45.49A2.56,2.56,0,0,0,17.14,15.27Z"/><path class="cls-1" d="M14.73,22.53a2.25,2.25,0,0,1,.73.08c1.06.45,2.08,1,2.86-.45.14-.25.52-.18.78,0a.67.67,0,0,1,.24.86,2.74,2.74,0,0,1-.58.77,1.17,1.17,0,0,0-.24,1.43,4.22,4.22,0,1,1-3.79-2.7Zm2.36,3.34c-.41.5-.81,1-1.19,1.42-1.65,2-1.65,2-3.14-.11-.34-.47-1-1-.31-1.57s1.09.23,1.49.69c0,.06.07.15.13.17.93.34,1-.64,1.38-1s1-.52.4-1.15l-.1-.05a2.76,2.76,0,1,0,.32,4.84A2.54,2.54,0,0,0,17.09,25.87Z"/><path class="cls-1" d="M28,27.33H34c.57,0,1.18,0,1.15.76s-.6.72-1.13.72H22.11c-.54,0-1.09-.07-1.1-.74s.53-.74,1.07-.73Z"/><path class="cls-1" d="M26.47,15.49H22c-.51,0-1-.06-1-.68S21.5,14,22,14h9.07c.54,0,1.07.1,1,.8s-.54.67-1,.67Z"/><path class="cls-1" d="M25.58,18.08H22c-.52,0-1-.1-1-.7s.43-.77.95-.77h7.23c.52,0,1,.17,1,.77s-.5.7-1,.7Z"/><path class="cls-1" d="M24.64,24.74h2.7c.48,0,.88.11.91.67s-.34.79-.82.79q-2.8,0-5.61,0c-.48,0-.85-.26-.81-.8s.36-.66.82-.66Z"/><path class="cls-1" d="M27.55,41a4.83,4.83,0,1,1,4.81,4.8A4.85,4.85,0,0,1,27.55,41Zm4.83,3.3a3.37,3.37,0,0,0,3.37-3.35,3.41,3.41,0,0,0-3.38-3.36A3.36,3.36,0,0,0,29,40.91,3.3,3.3,0,0,0,32.38,44.25Z"/></svg>