<svg id="Layer_1" data-name="Layer 1" xmlns="http://www.w3.org/2000/svg" width="53" height="53" viewBox="0 0 53 53"><defs><style>.cls-1{fill:#f9536e;}</style></defs><path class="cls-1" d="M27.72,46.24c-.63,0-1.11-.23-1.18-.83-.26-2-1.48-2.74-3.42-2.83-.82,0-1.38,0-1.78.72a3.94,3.94,0,0,1-.38.53c-1.08,1.45-1.59,1.52-3.05.43-.39-.29-.63-.65-.37-1.13a.78.78,0,0,1,1.11-.37c.64.35,1,.11,1.27-.43,0-.09.12-.15.16-.23a2.25,2.25,0,0,1,3.21-1.25,6.37,6.37,0,0,0,2.58.36,1.26,1.26,0,0,1,1.39,1c.08.3.2.59.3.88.45,1.33.45,1.3,1.79,1.15.69-.07,1.08-.34,1-1.05a2.85,2.85,0,0,1,2.38-3.45,7,7,0,0,0,2-1.1,1.21,1.21,0,0,1,1.55,0l.69.5c1.37,1,1.63.92,2.64-.46a.61.61,0,0,0-.08-.91C38.06,36.41,38,35,39.29,33.49a6,6,0,0,0,.89-2,1.31,1.31,0,0,1,1.41-1c.47,0,.94,0,1.41,0,.64,0,.93-.2,1-.88.23-1.48.27-1.48-1.18-2-1.77-.59-1.76-.59-1.88-2.48a10.5,10.5,0,0,0-.5-2.66A1.27,1.27,0,0,1,41,20.94c.24-.15.46-.34.68-.5,1.23-.92,1.28-1.38.33-2.61a.66.66,0,0,0-.91-.22c-1.86,1-3.19.44-4.25-1.29a5,5,0,0,0-1.4-1.23,1.32,1.32,0,0,1-.56-1.7c.11-.3.19-.6.28-.9.43-1.31.4-1.27-.83-2-.71-.39-1.16-.31-1.52.39-.75,1.45-1.77,2-3.42,1.36a9.49,9.49,0,0,0-2.68-.38A1.14,1.14,0,0,1,25.57,11c-.09-.33-.22-.65-.33-1a1.51,1.51,0,0,0-2.43-1,.7.7,0,0,0-.36.79c.28,2.06-.72,3.14-2.63,3.65a6,6,0,0,0-1.7,1,1.15,1.15,0,0,1-1.54,0,11.76,11.76,0,0,1-1-.72c-.69-.66-1.2-.54-1.86.13s-.86,1.14-.16,1.84a8.83,8.83,0,0,1,.72,1,1.2,1.2,0,0,1,0,1.55,15.18,15.18,0,0,0-1.78,3.5,1.07,1.07,0,0,1-1.13.8c-.56,0-1.13,0-1.69,0s-.87.2-1,.84C8.54,25,8.5,25,10.05,25.49s1.7.56,1.77,2.35a11.69,11.69,0,0,0,.51,2.76,1.29,1.29,0,0,1-.6,1.68c-.37.23-.7.52-1.06.77s-.77.6-.46,1.22a.78.78,0,0,1-.42,1.1c-.48.23-.83,0-1.11-.41-1-1.41-1-1.94.46-2.88a2.43,2.43,0,0,0,1.19-2.82A2.7,2.7,0,0,0,8,26.59c-1.24-.29-1.33-.55-1.15-1.8.13-.93.29-1.85.42-2.78.11-.77.56-1.28,1.31-1.15,1.94.32,2.93-.55,3.63-2.28A1.77,1.77,0,0,0,12,16.51c-1.5-2-1.46-2,.32-3.65l.76-.7C14.48,10.85,14.51,10.8,16,12a2.21,2.21,0,0,0,2.64.26c1.71-.72,2.33-1.72,2-3.47C20.6,8,21,7.53,21.89,7.44S23.8,7.15,24.75,7s1.44,0,1.56.89c.28,1.85,1.28,2.6,3.17,2.72a2,2,0,0,0,2.13-.87c1.3-1.88,1.12-1.93,3.34-.78l1.92,1a1,1,0,0,1,.53,1.33c-.23.68-.41,1.37-.66,2-.17.46.07.69.4.92s.58,0,.81-.21l2.32-2.31c.42-.42.9-.66,1.38-.13s.23.92-.17,1.32c-.77.77-1.55,1.54-2.31,2.32-.21.21-.53.4-.26.78s.51.28.84.23a5.52,5.52,0,0,0,3.15-2c1.56-1.6,1.57-1.58,0-3.14-.61-.62-1.26-1.21-1.84-1.86s-.86-.7-1.33,0a1.07,1.07,0,0,1-.27.25.8.8,0,0,1-1.18-.07.75.75,0,0,1,0-1.1c1.3-1.31,2.57-2.65,3.93-3.89a2.24,2.24,0,0,1,3,.2c1.12,1.05,2.21,2.12,3.25,3.25a2.34,2.34,0,0,1-.19,3.44c-1.38,1.41-2.74,2.84-4.19,4.16a1.44,1.44,0,0,0-.31,2.17c.33.49.54,1.06.82,1.58s.28,1.27-.36,1.53c-2.43,1-1.92,2.85-1.51,4.73a.84.84,0,0,0,.66.69l1.77.6A1.08,1.08,0,0,1,46,28c-.19,1-.32,2.1-.48,3.15-.12.75-.54,1.26-1.33,1.13-1.87-.33-2.89.42-3.56,2.18a2,2,0,0,0,.16,2.25c1.38,1.81,1.34,1.84-.25,3.43l-1.45,1.46c-.46.48-1,.64-1.49.15-1.45-1.56-2.88-1.41-4.55-.3a1.69,1.69,0,0,0-1,1.63c0,2.38.34,2.46-2.33,2.81C29.07,46,28.4,46.13,27.72,46.24ZM47.34,9.5a1.17,1.17,0,0,0-.46-.91L45,6.67c-1.43-1.42-1.52-1.4-2.9.13-.33.37-.31.61,0,.94.94.91,1.85,1.86,2.79,2.77.29.27.54.89,1,.53A3.44,3.44,0,0,0,47.34,9.5Z"/><path class="cls-1" d="M26.35,17.07a9.42,9.42,0,0,0-9.47,9.57c0,.28,0,.56,0,.84,0,.59-.11,1.12-.79,1.16s-.87-.51-.94-1.06a9.44,9.44,0,0,1,.2-3.35,11.27,11.27,0,0,1,22.2.79,11.25,11.25,0,0,1-10,12.78,10.87,10.87,0,0,1-2.42,0c-.6-.08-1.06-.33-1-1s.55-.78,1.12-.7a9.55,9.55,0,0,0,10.56-7.84,9.8,9.8,0,0,0-.06-3.54c-.1-.5-.28-.61-.66-.24l-.6.6Q24.22,35.32,13.94,45.6a4.29,4.29,0,0,1-1.8,1.12c-2.25.74-4.5,1.52-6.74,2.28-.46.16-.91.33-1.31-.09A1.16,1.16,0,0,1,4,47.59c.81-2.39,1.64-4.78,2.44-7.18a3.39,3.39,0,0,1,.92-1.28L27.91,18.58c.13-.14.28-.26.39-.4s.63-.38.48-.72-.54-.28-.84-.3C27.41,17.11,26.88,17.1,26.35,17.07ZM11.65,43.33c.09.29,0,.82.45,1.11s.63-.12.86-.35Q23.64,33.42,34.32,22.76a.9.9,0,0,0,.15-1.31,11.18,11.18,0,0,0-2.73-2.8,1,1,0,0,0-1.65.13q-10.44,10.5-20.93,21c-.14.13-.27.26-.4.4-.44.51-.39.87.31,1.09a2,2,0,0,0,2.25-.56q9.45-9.53,19-19A8.28,8.28,0,0,1,31,21a.76.76,0,0,1,1.1.09.78.78,0,0,1,0,1.1,8.39,8.39,0,0,1-.65.68L12.35,42C12,42.35,11.59,42.61,11.65,43.33Zm-3.73-.54c-.35-.08-.5.12-.61.42-.35,1-.71,2-1.07,3.08-.13.4-.06.62.43.45,1.06-.37,2.12-.72,3.18-1.08a.5.5,0,0,0,.39-.55A2.06,2.06,0,0,0,7.92,42.79Z"/></svg>